# xmcd CD database generated by RipIT
#
# Track frame offsets:
# 150
# 21813
# 37832
# 56410
# 69305
# 84886
# 101823
# 114420
# 124806
# 137432
# 149921
# 173058
# 183471
# 192388
# 212894
# 229888
# 251018
# 269430
# 284092
# 298349
#
# Disc length: 4159 seconds
#
# Revision: 0
# Processed by: cddbd v1.5.2PL0 Copyright (c) Steve Scherf et al.
# Submitted via: RipIT 3.9.0 www.suwald.com/ripit/ripit.html on 2013-09-01 at 21:46
#
DISCID=38103d14
DTITLE=Jonny Hill - Meine Besten
DYEAR=2005
DGENRE=Ballad
TTITLE0=Ruf Teddybär Eins-Vier
TTITLE1=Solang Dein Traum Dich trägt
TTITLE2=Sylvia's Mutter (Sylvia's Mother)
TTITLE3=Mein Lied für Dich (Annie's Song)
TTITLE4=Lucille
TTITLE5=Rosen für Mama
TTITLE6=Kann Liebe alles vrzeih'n (Some Broken Hearts Never Mend)
TTITLE7=Heute Nacht da brauch' ich Dich (Help Me Make It Through The Night)
TTITLE8=Green Green Grass Of Home (deutsch)
TTITLE9=Fünfhundert Meilen von Zuhaus (500 Miles Away From Home)
TTITLE10=Tommy und Strolch
TTITLE11=König der Landstrasse (King Of The Road)
TTITLE12=Ein Ring aus Feuer (Ring Of Fire)
TTITLE13=Der Feigling (The Coward Of The Country)
TTITLE14=Addio, Santa Lucia
TTITLE15=Papillon
TTITLE16=Wieder mal auf Tournee (Leaving On A Jetplane)
TTITLE17=Nur noch einmal nach Haus (Detroit City)
TTITLE18=Wer wie ich viel unterwegs war
TTITLE19=Ich lösche das Licht aus (Dreaming My Dreams)
EXTD=In Lizenz von Werner Triepke Music GmbH
EXTD=\n
EXTT0=Eddie Sovine, Dale Royal, Billy Joe Brunette, Tommy Hill - Jonny Hill, Ulf Krüger
EXTT1=Werner Becker, Bernd Meinunger
EXTT2=Shel Silverstein, Peter Orloff
EXTT3=John Denver, Jonny Hill
EXTT4=Bowling, bynum, Michael Holm
EXTT5=Hans Georg-Moslener, Jonny Hill
EXTT6=Holyfield, Hans-G. Moslener, Tegetthoff, Jonny Hill
EXTT7=Kris Kristofferson, Jonny Hill, Fred Fonda
EXTT8=Curly Putman, Jonny Hill
EXTT9=Bobby Bare, Wiliams, West, Gunter Gabriel
EXTT10=Jonny Hill, Hans-Georg Moslener
EXTT11=Miller, Hans Bradtke, Jonny Hill, Hans-Georg Moslener
EXTT12=Carter, Kilgore, Hans-Georg Moslener, Greif
EXTT13=Roger Bowling, Billy Edd Wheeler, Johnny Hill
EXTT14=Hans-Georg Moslener, Jonny Hill, Günther Behrle
EXTT15=Hans-Georg Moslener, Jonny Hill
EXTT16=John Denver, Jonny Hill
EXTT17=Dill, Tillis, Franz Rüger
EXTT18=Jonny Hill
EXTT19=Allen Reynolds, Volker Lechtenbrink
PLAYORDER=
